<svg id="Capa_1" enable-background="new 0 0 512 512" height="512" viewBox="0 0 512 512" width="512" xmlns="http://www.w3.org/2000/svg" xmlns:xlink="http://www.w3.org/1999/xlink"><linearGradient id="SVGID_1_" gradientUnits="userSpaceOnUse" x1="346" x2="346" y1="496" y2="16"><stop offset="0" stop-color="#ffbef9"/><stop offset="1" stop-color="#fff1ff"/></linearGradient><linearGradient id="SVGID_2_" gradientUnits="userSpaceOnUse" x1="180" x2="180" y1="436" y2="76"><stop offset="0" stop-color="#a93aff"/><stop offset="1" stop-color="#ff81ff"/></linearGradient><g><g><g><path d="m437 406h-92c-8.401 0-15 6.599-15 15 0 8.399 6.599 15 15 15h92c24.902 0 45 20.1 45 45 0 8.399 6.599 15 15 15s15-6.601 15-15c0-41.4-33.6-75-75-75zm-17-270c0-66.301-53.701-120-120-120s-120 53.699-120 120c0 66.299 53.701 120 120 120s120-53.701 120-120z" fill="url(#SVGID_1_)"/></g></g><g><g><path d="m344.399 316c-32.102 0-62.999-6.901-91.802-19.801-5.698-2.699-12.598-1.5-16.798 3.001l-14.7 14.7c-41.1-23.101-75.897-57.6-98.998-99l14.7-14.401c4.497-4.499 5.698-11.4 2.996-17.101-12.898-28.798-19.797-59.699-19.797-91.799 0-8.7-6.599-15.599-15-15.599h-90c-8.101 0-15 6.599-15 14.7 0 190.499 154.797 345.3 345 345.3 8.284 0 15-6.716 15-15v-90c0-8.401-6.899-15-15.601-15zm-44.399-165h45c8.401 0 15-6.601 15-15 0-8.401-6.599-15-15-15h-30v-30c0-8.401-6.599-15-15-15s-15 6.599-15 15v45c0 8.399 6.599 15 15 15z" fill="url(#SVGID_2_)"/></g></g></g></svg>