<svg height="512" viewBox="0 0 128 128" width="512" xmlns="http://www.w3.org/2000/svg"><g><circle cx="64" cy="64" fill="#3ea2e5" r="37.539"/><g fill="#dfeef4"><path d="m60.478 20.394v-14.088l7.044 7.044z"/><path d="m67.522 121.694v-14.088l-7.044 7.044z"/><path d="m107.606 60.478h14.088l-7.044 7.044z"/><path d="m6.306 67.522h14.088l-7.044-7.044z"/></g><g><path d="m64 24.711a39.289 39.289 0 1 0 39.289 39.289 39.334 39.334 0 0 0 -39.289-39.289zm34.223 28.817c-3.638-3.457-9.046-6.277-15.62-8.13-1.853-6.574-4.673-11.983-8.13-15.62a35.94 35.94 0 0 1 23.75 23.75zm-13.214 8.722a70.969 70.969 0 0 0 -1.427-12.825c8.731 2.864 14.893 7.539 16.02 12.825zm-3.5 0h-15.759v-15.759a65.426 65.426 0 0 1 13.938 1.822 65.354 65.354 0 0 1 1.821 13.937zm-15.759-19.258v-14.592c5.286 1.127 9.962 7.289 12.825 16.021a70.879 70.879 0 0 0 -12.825-1.429zm-3.5-14.592v14.592a70.879 70.879 0 0 0 -12.825 1.427c2.863-8.732 7.539-14.894 12.825-16.019zm0 18.093v15.757h-15.759a65.354 65.354 0 0 1 1.821-13.937 65.426 65.426 0 0 1 13.938-1.822zm-19.259 15.757h-14.591c1.127-5.286 7.289-9.961 16.02-12.825a70.969 70.969 0 0 0 -1.429 12.825zm0 3.5a70.969 70.969 0 0 0 1.427 12.825c-8.731-2.864-14.893-7.539-16.018-12.825zm3.5 0h15.759v15.759a65.426 65.426 0 0 1 -13.938-1.822 65.354 65.354 0 0 1 -1.821-13.937zm15.759 19.258v14.592c-5.286-1.127-9.962-7.289-12.825-16.021a70.879 70.879 0 0 0 12.825 1.429zm3.5 14.592v-14.592a70.879 70.879 0 0 0 12.825-1.427c-2.863 8.732-7.539 14.894-12.825 16.019zm0-18.093v-15.757h15.759a65.354 65.354 0 0 1 -1.821 13.937 65.426 65.426 0 0 1 -13.938 1.822zm19.259-15.757h14.591c-1.127 5.286-7.289 9.961-16.02 12.825a70.969 70.969 0 0 0 1.429-12.825zm-31.482-35.972c-3.457 3.637-6.277 9.046-8.127 15.622-6.574 1.853-11.982 4.673-15.62 8.13a35.94 35.94 0 0 1 23.747-23.752zm-23.75 44.694c3.638 3.457 9.046 6.277 15.62 8.13 1.853 6.574 4.673 11.983 8.13 15.62a35.94 35.94 0 0 1 -23.75-23.75zm44.7 23.75c3.457-3.637 6.277-9.046 8.13-15.62 6.574-1.853 11.982-4.673 15.62-8.13a35.94 35.94 0 0 1 -23.754 23.75z"/><path d="m14.4 53.523a1.749 1.749 0 0 0 2.118-1.28 48.683 48.683 0 0 1 42.206-36.86v5.017a1.749 1.749 0 0 0 2.987 1.237l7.044-7.044a1.749 1.749 0 0 0 0-2.475l-7.04-7.049a1.749 1.749 0 0 0 -2.987 1.238v5.562a52.173 52.173 0 0 0 -45.6 39.536 1.75 1.75 0 0 0 1.272 2.118zm47.828-42.992 2.819 2.82-2.819 2.819z"/><path d="m113.6 74.477a1.754 1.754 0 0 0 -2.118 1.28 48.683 48.683 0 0 1 -42.206 36.86v-5.012a1.749 1.749 0 0 0 -2.987-1.237l-7.044 7.044a1.749 1.749 0 0 0 0 2.475l7.044 7.044a1.746 1.746 0 0 0 1.237.512 1.781 1.781 0 0 0 .67-.132 1.752 1.752 0 0 0 1.08-1.618v-5.562a52.173 52.173 0 0 0 45.6-39.536 1.75 1.75 0 0 0 -1.276-2.118zm-47.828 42.992-2.819-2.82 2.819-2.819z"/><path d="m75.756 16.522a48.829 48.829 0 0 1 23.019 13.1l.45.461a1.75 1.75 0 1 0 2.521-2.428l-.481-.493a52.331 52.331 0 0 0 -24.665-14.038 1.75 1.75 0 0 0 -.839 3.4z"/><path d="m123.31 59.809a1.75 1.75 0 0 0 -1.617-1.08h-5.558a52.191 52.191 0 0 0 -9.64-25.394 1.75 1.75 0 1 0 -2.837 2.051 48.68 48.68 0 0 1 8.958 23.343h-5.01a1.749 1.749 0 0 0 -1.237 2.987l7.044 7.043a1.75 1.75 0 0 0 2.474 0l7.044-7.043a1.75 1.75 0 0 0 .379-1.907zm-8.66 5.238-2.819-2.818h5.637z"/><path d="m15.384 69.271h5.01a1.749 1.749 0 0 0 1.237-2.987l-7.044-7.043a1.75 1.75 0 0 0 -2.474 0l-7.044 7.043a1.75 1.75 0 0 0 1.238 2.987h5.558a52.192 52.192 0 0 0 9.744 25.538 1.75 1.75 0 0 0 2.83-2.061 48.685 48.685 0 0 1 -9.055-23.477zm-2.034-6.318 2.819 2.818h-5.637z"/><path d="m29.37 98.524a1.75 1.75 0 1 0 -2.478 2.476c.894.9 1.833 1.772 2.791 2.6a1.75 1.75 0 0 0 2.3-2.643c-.901-.776-1.778-1.596-2.613-2.433z"/><path d="m52.244 111.478a48.574 48.574 0 0 1 -14.4-6.151 1.75 1.75 0 1 0 -1.874 2.955 52.038 52.038 0 0 0 15.43 6.594 1.8 1.8 0 0 0 .421.051 1.75 1.75 0 0 0 .418-3.449z"/></g></g></svg>