<svg id="Capa_1" enable-background="new 0 0 512 512" height="512" viewBox="0 0 512 512" width="512" xmlns="http://www.w3.org/2000/svg"><g><path d="m7.5 256h497v248.5h-497z" fill="#fad59a"/><path d="m480.473 256h24.027v248.5h-24.027z" fill="#f9c36e"/><path d="m504.5 256-248.5 141.423-248.5-141.423 248.5-176.778z" fill="#e7a52e"/><path d="m256 7.5h192.941v280.119l-192.941 109.804-192.941-109.804v-280.119z" fill="#f4fbff"/><path d="m425.13 7.5v293.67l23.811-13.551v-280.119z" fill="#e4f6ff"/><g><path d="m343.206 398.185h60.61v36.366h-60.61z" fill="#2b4d66" transform="matrix(.707 -.707 .707 .707 -185.018 386.063)"/><path d="m381.042 423.9h36.366v36.366h-36.366z" fill="#4a80aa" transform="matrix(.707 -.707 .707 .707 -195.669 411.778)"/><path d="m504.5 504.5h-85.715l-28.131-28.131 42.857-42.858z" fill="#9d66d5"/><path d="m433.511 433.511-14.286 14.286 56.703 56.703h28.572z" fill="#8659b9"/><circle cx="277.795" cy="320.653" fill="#9d66d5" r="121.22"/><path d="m351.102 224.113c15.483 20.358 24.679 45.757 24.679 73.307 0 66.948-54.272 121.22-121.219 121.22-27.55 0-52.948-9.197-73.307-24.679 22.141 29.113 57.143 47.913 96.54 47.913 66.948 0 121.219-54.272 121.219-121.22.001-39.399-18.799-74.401-47.912-96.541z" fill="#8659b9"/><circle cx="277.795" cy="320.653" fill="#e4f6ff" r="88.894"/><path d="m331.477 249.798c11.319 14.916 18.04 33.513 18.04 53.682 0 49.095-39.799 88.894-88.894 88.894-20.169 0-38.765-6.721-53.682-18.04 16.233 21.393 41.929 35.212 70.855 35.212 49.095 0 88.894-39.799 88.894-88.894 0-28.925-13.82-54.62-35.213-70.854z" fill="#d3effb"/></g><g><path d="m415.605 104.047h-159.605-159.605c-4.142 0-7.5 3.358-7.5 7.5s3.358 7.5 7.5 7.5h159.605 159.605c4.143 0 7.5-3.358 7.5-7.5s-3.357-7.5-7.5-7.5z"/><path d="m415.605 71.722h-159.605-159.605c-4.142 0-7.5 3.358-7.5 7.5s3.358 7.5 7.5 7.5h159.605 159.605c4.143 0 7.5-3.358 7.5-7.5s-3.357-7.5-7.5-7.5z"/><path d="m415.605 136.372h-319.21c-4.142 0-7.5 3.358-7.5 7.5s3.358 7.5 7.5 7.5h319.211c4.143 0 7.5-3.358 7.5-7.5s-3.358-7.5-7.501-7.5z"/><path d="m256 54.396h98.996c4.143 0 7.5-3.358 7.5-7.5s-3.357-7.5-7.5-7.5h-98.996-98.996c-4.142 0-7.5 3.358-7.5 7.5s3.358 7.5 7.5 7.5z"/><path d="m345.957 252.492c-37.586-37.583-98.738-37.584-136.323 0-18.207 18.207-28.233 42.413-28.233 68.161s10.027 49.955 28.233 68.161c18.792 18.792 43.477 28.188 68.161 28.188 24.685 0 49.369-9.396 68.162-28.188 37.583-37.584 37.583-98.738 0-136.322zm-10.607 125.716c-31.733 31.734-83.374 31.736-115.109 0-15.373-15.374-23.84-35.813-23.84-57.555s8.467-42.181 23.84-57.555c15.868-15.868 36.711-23.802 57.554-23.802 20.844 0 41.688 7.934 57.555 23.802 31.735 31.736 31.735 83.374 0 115.11z"/><path d="m504.5 316.08c4.143 0 7.5-3.358 7.5-7.5v-52.58c0-2.427-1.175-4.704-3.152-6.111l-52.407-37.287v-101.102c0-4.142-3.357-7.5-7.5-7.5s-7.5 3.358-7.5 7.5v171.757l-36.094 20.541c-3.555-27.14-15.726-53.357-36.532-74.164-50.189-50.188-131.85-50.188-182.038 0-26.985 26.985-39.452 63.069-37.418 98.467l-78.799-44.844v-268.257h370.88v61.5c0 4.142 3.357 7.5 7.5 7.5s7.5-3.358 7.5-7.5v-69c0-4.142-3.357-7.5-7.5-7.5h-385.88c-4.142 0-7.5 3.358-7.5 7.5v205.101l-52.408 37.288c-1.978 1.407-3.152 3.684-3.152 6.111v165.11c0 4.142 3.358 7.5 7.5 7.5s7.5-3.358 7.5-7.5v-152.212l136.796 77.85c4.892 23.808 16.546 46.49 34.981 64.924 25.094 25.094 58.056 37.641 91.018 37.641 20.748 0 41.493-4.975 60.278-14.917l21.562 21.562c1.465 1.464 3.385 2.197 5.304 2.197s3.839-.732 5.304-2.197l3.268-3.268 15.107 15.108-3.268 3.268c-1.406 1.406-2.196 3.314-2.196 5.303s.79 3.897 2.196 5.303l15.328 15.328h-385.678v-40.89c0-4.142-3.358-7.5-7.5-7.5s-7.5 3.358-7.5 7.5v48.39c0 4.142 3.358 7.5 7.5 7.5h497c4.143 0 7.5-3.358 7.5-7.5v-160.92c0-4.142-3.357-7.5-7.5-7.5s-7.5 3.358-7.5 7.5v142.813l-58.186-58.185c-2.93-2.929-7.678-2.929-10.607 0l-3.268 3.268-15.108-15.107 3.269-3.269c1.406-1.407 2.196-3.314 2.196-5.303s-.79-3.897-2.197-5.303l-21.562-21.561c9.977-18.853 14.95-39.68 14.914-60.503l90.549-51.532v39.682c0 4.142 3.357 7.5 7.5 7.5zm-448.94-41.359-34.133-19.425 34.133-24.285zm141.823 126.344c-44.339-44.339-44.339-116.485 0-160.824 22.169-22.169 51.291-33.254 80.412-33.254s58.243 11.084 80.412 33.254c44.339 44.339 44.339 116.485 0 160.824-44.338 44.338-116.484 44.339-160.824 0zm289.01 95.935h-64.501l-20.632-20.631 32.251-32.251zm-72.06-54.917-15.108 15.108-15.107-15.108 15.107-15.107zm-17.143-34.287-32.251 32.251-13.682-13.682c6.175-4.295 12.055-9.193 17.557-14.695 5.501-5.501 10.399-11.381 14.694-17.556zm59.25-176.785 34.133 24.285-34.133 19.425z"/></g></g></svg>